<svg xmlns="http://www.w3.org/2000/svg" width="154" height="29" viewBox="0 0 154 29" fill="none" class="h-35 w-auto"><g clip-path="url(#clip0_251_45)"><path d="M36.4617 1.58485C36.4617 2.10725 36.3 2.50725 35.9752 2.78359C35.6504 3.05993 35.1889 3.19873 34.5907 3.19873H34.1517V4.92617H33.1284V0.069397H34.6697C35.2553 0.069397 35.7005 0.19558 36.0053 0.449207C36.31 0.702834 36.463 1.08138 36.463 1.58359L36.4617 1.58485ZM34.1505 2.35456H34.4878C34.8026 2.35456 35.0384 2.29147 35.1939 2.16655C35.3494 2.04163 35.4284 1.85993 35.4284 1.62018C35.4284 1.38043 35.3632 1.19999 35.2315 1.08517C35.1011 0.970341 34.8954 0.912297 34.6157 0.912297H34.1505V2.3533V2.35456Z" fill="white"></path><path d="M40.6855 4.9262V0.0694275H41.7089V4.07573H43.6665V4.9262H40.6855Z" fill="white"></path><path d="M50.7735 4.92617L50.4236 3.77034H48.6641L48.3142 4.92617H47.2119L48.9149 0.0504761H50.1665L51.8771 4.92617H50.7747H50.7735ZM50.179 2.90599C49.8555 1.85867 49.6737 1.26561 49.6323 1.12934C49.5909 0.991799 49.562 0.883282 49.5445 0.803786C49.4718 1.0877 49.2636 1.78801 48.92 2.90599H50.1778H50.179Z" fill="white"></path><path d="M57.2986 2.06942L58.3056 0.0694275H59.4079L57.8065 3.03598V4.9262H56.7894V3.06879L55.188 0.0694275H56.2978L57.2973 2.06942H57.2986Z" fill="white"></path><path d="M66.1089 4.9262H63.3298V0.0694275H66.1089V0.913589H64.3532V1.97983H65.9872V2.82399H64.3532V4.07573H66.1089V4.9262Z" fill="white"></path><path d="M71.4513 3.06248V4.9262H70.428V0.0694275H71.8338C72.4897 0.0694275 72.975 0.189301 73.2898 0.43031C73.6045 0.670057 73.7613 1.03599 73.7613 1.52431C73.7613 1.80949 73.6835 2.06437 73.5268 2.28646C73.3713 2.50854 73.1493 2.68393 72.8634 2.81011C73.5895 3.90159 74.0623 4.60695 74.283 4.9262H73.1468L71.9943 3.06248H71.45H71.4513ZM71.4513 2.22589H71.7811C72.1047 2.22589 72.3442 2.17163 72.4972 2.06311C72.6514 1.9546 72.7279 1.78425 72.7279 1.55207C72.7279 1.3199 72.6489 1.15838 72.4922 1.05996C72.3342 0.9628 72.0909 0.913589 71.7611 0.913589H71.45V2.22589H71.4513Z" fill="white"></path><path d="M81.0539 3.57728C81.0539 4.01514 80.8972 4.36088 80.5837 4.61324C80.2701 4.86561 79.8337 4.99179 79.2744 4.99179C78.759 4.99179 78.3038 4.89463 77.9075 4.69905V3.74258C78.2335 3.88896 78.5094 3.99116 78.7352 4.05173C78.9609 4.11104 79.1666 4.14132 79.3547 4.14132C79.5792 4.14132 79.751 4.09842 79.8714 4.01135C79.9917 3.92555 80.0519 3.79684 80.0519 3.6265C80.0519 3.53186 80.0256 3.44605 79.9729 3.37287C79.9203 3.29842 79.8425 3.22776 79.7397 3.15836C79.6368 3.09022 79.4287 2.98044 79.1139 2.82902C78.8192 2.68896 78.5972 2.55521 78.4505 2.4265C78.3025 2.29779 78.1859 2.1489 78.0968 1.97855C78.0091 1.80821 77.9652 1.60884 77.9652 1.38045C77.9652 0.951427 78.1094 0.613258 78.3991 0.367202C78.6888 0.121146 79.0888 -0.00125122 79.5992 -0.00125122C79.85 -0.00125122 80.0896 0.0290326 80.3178 0.0883384C80.546 0.147644 80.7843 0.232186 81.0326 0.340703L80.7028 1.1407C80.4457 1.03471 80.2325 0.96026 80.0645 0.918619C79.8964 0.876979 79.7309 0.855528 79.5679 0.855528C79.3747 0.855528 79.2255 0.900954 79.1227 0.991805C79.0198 1.08266 78.9672 1.20127 78.9672 1.34764C78.9672 1.43849 78.9872 1.51799 79.0299 1.58486C79.0713 1.653 79.139 1.71735 79.2293 1.78045C79.3208 1.84354 79.5365 1.9571 79.8776 2.12114C80.3291 2.33817 80.6376 2.55521 80.8056 2.7735C80.9724 2.9918 81.0565 3.25931 81.0565 3.57602L81.0539 3.57728Z" fill="white"></path><path d="M91.3188 4.9262H90.3118V0.0694275H93.0782V0.913589H91.3188V2.16532H92.9566V3.0057H91.3188V4.9262Z" fill="white"></path><path d="M97.3359 4.9262V0.0694275H98.3593V4.9262H97.3359Z" fill="white"></path><path d="M103.91 3.06248V4.9262H102.886V0.0694275H104.292C104.948 0.0694275 105.433 0.189301 105.748 0.43031C106.063 0.670057 106.22 1.03599 106.22 1.52431C106.22 1.80949 106.142 2.06437 105.985 2.28646C105.83 2.50854 105.608 2.68393 105.322 2.81011C106.048 3.90159 106.521 4.60695 106.741 4.9262H105.605L104.453 3.06248H103.909H103.91ZM103.91 2.22589H104.24C104.563 2.22589 104.803 2.17163 104.956 2.06311C105.11 1.9546 105.186 1.78425 105.186 1.55207C105.186 1.3199 105.107 1.15838 104.951 1.05996C104.793 0.9628 104.549 0.913589 104.22 0.913589H103.909V2.22589H103.91Z" fill="white"></path><path d="M113.512 3.57728C113.512 4.01514 113.356 4.36088 113.042 4.61324C112.729 4.86561 112.292 4.99179 111.733 4.99179C111.217 4.99179 110.762 4.89463 110.366 4.69905V3.74258C110.692 3.88896 110.968 3.99116 111.194 4.05173C111.419 4.11104 111.625 4.14132 111.813 4.14132C112.038 4.14132 112.209 4.09842 112.33 4.01135C112.45 3.92555 112.51 3.79684 112.51 3.6265C112.51 3.53186 112.484 3.44605 112.431 3.37287C112.379 3.29842 112.301 3.22776 112.198 3.15836C112.095 3.09022 111.887 2.98044 111.572 2.82902C111.278 2.68896 111.056 2.55521 110.909 2.4265C110.761 2.29779 110.644 2.1489 110.555 1.97855C110.468 1.80821 110.424 1.60884 110.424 1.38045C110.424 0.951427 110.568 0.613258 110.858 0.367202C111.147 0.121146 111.547 -0.00125122 112.058 -0.00125122C112.309 -0.00125122 112.548 0.0290326 112.776 0.0883384C113.005 0.147644 113.243 0.232186 113.491 0.340703L113.161 1.1407C112.904 1.03471 112.691 0.96026 112.523 0.918619C112.355 0.876979 112.189 0.855528 112.026 0.855528C111.833 0.855528 111.684 0.900954 111.581 0.991805C111.478 1.08266 111.426 1.20127 111.426 1.34764C111.426 1.43849 111.446 1.51799 111.488 1.58486C111.53 1.653 111.597 1.71735 111.688 1.78045C111.778 1.84354 111.995 1.9571 112.336 2.12114C112.788 2.33817 113.096 2.55521 113.264 2.7735C113.431 2.9918 113.515 3.25931 113.515 3.57602L113.512 3.57728Z" fill="white"></path><path d="M119.562 4.9262H118.539V0.926207H117.229V0.0694275H120.873V0.926207H119.562V4.9262Z" fill="white"></path><path d="M0 11.4905H4.62011C6.41975 11.4905 7.75537 11.7593 8.62822 12.2968C9.50108 12.8344 9.9375 13.6722 9.9375 14.8079C9.9375 15.5549 9.74688 16.1934 9.36689 16.7221C8.98689 17.2509 8.48525 17.5916 7.86322 17.743V17.8338C8.68466 18.0521 9.2791 18.4168 9.64781 18.9279C10.0165 19.4377 10.2009 20.1001 10.2009 20.9153C10.2009 22.1241 9.74939 23.0768 8.84643 23.7721C7.94348 24.4674 6.71321 24.8157 5.15436 24.8157H0V11.4905ZM3.57795 16.6035H4.65648C5.16941 16.6035 5.56696 16.4975 5.84788 16.2843C6.1288 16.071 6.26926 15.7556 6.26926 15.3366C6.26926 14.5896 5.70742 14.2161 4.58374 14.2161H3.57795V16.6035ZM3.57795 19.2383V22.0371H4.83707C5.95448 22.0371 6.51255 21.5626 6.51255 20.615C6.51255 20.1708 6.36331 19.8314 6.06358 19.5941C5.76511 19.3569 5.33119 19.2383 4.76308 19.2383H3.5767H3.57795Z" fill="white"></path><path d="M12.501 24.8169V11.4917H16.0789V21.9096H21.1794V24.8169H12.501Z" fill="white"></path><path d="M31.424 24.817L30.7718 22.3197H26.469L25.7981 24.817H21.8665L26.1868 11.4362H30.9612L35.3368 24.817H31.4227H31.424ZM30.0294 19.3657L29.4588 17.1777C29.3259 16.6919 29.1641 16.0622 28.9747 15.2912C28.7841 14.5202 28.6587 13.9662 28.5985 13.6319C28.5445 13.9423 28.4367 14.4521 28.2774 15.1637C28.1182 15.8742 27.762 17.2748 27.2127 19.3657H30.0294Z" fill="white"></path><path d="M42.6659 14.2527C41.8144 14.2527 41.1497 14.6035 40.6731 15.3051C40.1966 16.0067 39.9583 16.9745 39.9583 18.2086C39.9583 20.7727 40.9277 22.0547 42.8665 22.0547C43.4522 22.0547 44.0203 21.9727 44.5696 21.8087C45.1189 21.6446 45.672 21.4465 46.2275 21.2156V24.2605C45.1227 24.7526 43.8723 24.9986 42.4778 24.9986C40.4787 24.9986 38.9462 24.4157 37.8802 23.2485C36.8142 22.0812 36.2812 20.3954 36.2812 18.1897C36.2812 16.8105 36.5396 15.5978 37.055 14.553C37.5717 13.5082 38.3142 12.7044 39.2836 12.1416C40.253 11.5801 41.393 11.2987 42.7035 11.2987C44.1344 11.2987 45.5027 11.6116 46.8069 12.2375L45.7108 15.0716C45.2217 14.8407 44.7326 14.6464 44.2435 14.4886C43.7544 14.3309 43.229 14.2514 42.6671 14.2514L42.6659 14.2527Z" fill="white"></path><path d="M60.1217 24.8169H56.0809L53.4624 19.7216L52.4027 20.3601V24.8169H48.8059V11.4917H52.4027V17.2799C52.5845 16.9215 52.9495 16.3537 53.4988 15.5751L56.2791 11.4917H60.1931L56.017 17.4616L60.1204 24.8169H60.1217Z" fill="white"></path><path d="M61.8825 29C61.2303 29 60.6108 28.9357 60.0251 28.8082V26.0094C60.2183 26.046 60.424 26.0864 60.6409 26.1331C60.8579 26.1785 61.0936 26.2012 61.347 26.2012C61.9389 26.2012 62.3615 26.022 62.6149 25.6637C62.8682 25.3053 62.9949 24.692 62.9949 23.8226V11.4905H66.5916V23.5122C66.5916 25.3166 66.1991 26.682 65.414 27.6094C64.629 28.5356 63.4514 29 61.8812 29H61.8825Z" fill="white"></path><path d="M77.5812 24.817L76.9291 22.3197H72.6262L71.9553 24.817H68.0237L72.3441 11.4362H77.1184L81.494 24.817H77.5799H77.5812ZM76.1866 19.3657L75.616 17.1777C75.4831 16.6919 75.3213 16.0622 75.1319 15.2912C74.9413 14.5202 74.8159 13.9662 74.7557 13.6319C74.7018 13.9423 74.5939 14.4521 74.4347 15.1637C74.2754 15.8742 73.9192 17.2748 73.3699 19.3657H76.1866Z" fill="white"></path><path d="M88.8231 14.2527C87.9716 14.2527 87.3069 14.6035 86.8303 15.3051C86.3538 16.0067 86.1155 16.9745 86.1155 18.2086C86.1155 20.7727 87.0849 22.0547 89.0238 22.0547C89.6094 22.0547 90.1775 21.9727 90.7268 21.8087C91.2761 21.6446 91.8292 21.4465 92.3848 21.2156V24.2605C91.2799 24.7526 90.0296 24.9986 88.635 24.9986C86.636 24.9986 85.1034 24.4157 84.0375 23.2485C82.9715 22.0812 82.4385 20.3954 82.4385 18.1897C82.4385 16.8105 82.6968 15.5978 83.2123 14.553C83.729 13.5082 84.4714 12.7044 85.4408 12.1416C86.4102 11.5801 87.5502 11.2987 88.8607 11.2987C90.2917 11.2987 91.6599 11.6116 92.9642 12.2375L91.8681 15.0716C91.379 14.8407 90.8899 14.6464 90.4008 14.4886C89.9117 14.3309 89.3862 14.2514 88.8244 14.2514L88.8231 14.2527Z" fill="white"></path><path d="M106.279 24.8169H102.238L99.6196 19.7216L98.5599 20.3601V24.8169H94.9631V11.4917H98.5599V17.2799C98.7417 16.9215 99.1067 16.3537 99.656 15.5751L102.436 11.4917H106.35L102.174 17.4616L106.278 24.8169H106.279Z" fill="white"></path><path d="M120.873 24.8169H117.349V11.4917H125.176V14.3814H120.873V16.924H124.841V19.8137H120.873V24.8182V24.8169Z" fill="white"></path><path d="M138.61 11.4905V19.5108C138.61 21.2547 138.12 22.6049 137.138 23.5627C136.157 24.5192 134.742 24.9987 132.894 24.9987C131.045 24.9987 129.701 24.5343 128.731 23.6043C127.762 22.6743 127.278 21.338 127.278 19.5941V11.4917H130.875V19.3115C130.875 20.2541 131.05 20.9367 131.4 21.362C131.75 21.7872 132.267 22.0005 132.949 22.0005C133.68 22.0005 134.209 21.7898 134.539 21.367C134.868 20.9443 135.032 20.2541 135.032 19.2938V11.4917H138.61V11.4905Z" fill="white"></path><path d="M154 24.8169H149.308L144.47 15.4287H144.389C144.503 16.9051 144.561 18.0319 144.561 18.8105V24.8169H141.39V11.4917H146.064L150.884 20.7525H150.938C150.854 19.4099 150.811 18.331 150.811 17.5171V11.4917H154V24.8169Z" fill="white"></path><path fill-rule="evenodd" clip-rule="evenodd" d="M109.469 19.7859C108.793 19.7796 108.245 19.2559 108.252 18.62C108.257 18.2036 108.473 17.9789 108.774 17.6887C109.591 17.0502 110.203 16.2363 110.72 15.3391C111.132 16.0534 111.654 16.8319 112.573 17.714C112.828 17.9726 113.122 18.2742 113.117 18.6641C113.111 19.3001 112.553 19.8137 111.877 19.8074C111.414 19.8023 111.012 19.5575 110.806 19.1992C110.777 19.6282 111.021 20.2465 111.337 20.9128C110.86 20.7412 110.505 20.7083 110.025 20.9014C110.362 20.1885 110.558 19.6042 110.549 19.2004C110.335 19.5537 109.93 19.7897 109.468 19.7859" fill="white"></path></g><defs><clipPath id="clip0_251_45"><rect width="154" height="29" fill="white"></rect></clipPath></defs></svg>
